<svg width="18" height="18" viewBox="0 0 18 18" fill="none" xmlns="http://www.w3.org/2000/svg">
<path d="M16.4635 12.8489V15.2239C16.4644 15.4443 16.4192 15.6626 16.3309 15.8646C16.2426 16.0666 16.113 16.2479 15.9506 16.397C15.7881 16.546 15.5963 16.6595 15.3874 16.7302C15.1786 16.8008 14.9573 16.827 14.7377 16.8072C12.3016 16.5425 9.96155 15.7101 7.90559 14.3768C5.99279 13.1613 4.37107 11.5396 3.15559 9.62677C1.81766 7.56147 0.985035 5.21006 0.725176 2.76302C0.705392 2.5441 0.73141 2.32345 0.801572 2.11514C0.871734 1.90682 0.984503 1.7154 1.1327 1.55305C1.28089 1.39071 1.46127 1.261 1.66234 1.17218C1.86342 1.08337 2.08078 1.03739 2.30059 1.03719H4.67559C5.05979 1.0334 5.43226 1.16946 5.72357 1.41998C6.01488 1.67051 6.20515 2.01841 6.25893 2.39885C6.35917 3.15891 6.54507 3.90518 6.81309 4.62344C6.91961 4.90679 6.94266 5.21474 6.87952 5.5108C6.81638 5.80686 6.66969 6.07861 6.45684 6.29385L5.45143 7.29927C6.57841 9.28124 8.21945 10.9223 10.2014 12.0493L11.2068 11.0439C11.4221 10.831 11.6938 10.6843 11.9899 10.6212C12.286 10.558 12.5939 10.5811 12.8773 10.6876C13.5955 10.9556 14.3418 11.1415 15.1018 11.2418C15.4864 11.296 15.8376 11.4897 16.0887 11.786C16.3397 12.0823 16.4731 12.4606 16.4635 12.8489Z" stroke="white" stroke-width="1.3" stroke-linecap="round" stroke-linejoin="round"/>
</svg>
