<svg width="68" height="46" viewBox="0 0 68 46" fill="none" xmlns="http://www.w3.org/2000/svg">
<path fill-rule="evenodd" clip-rule="evenodd" d="M33.8308 42.3178C40.4725 38.4757 44.9409 31.2947 44.9409 23.0701C44.9409 14.8454 40.4725 7.66442 33.8308 3.82238C37.0992 1.93171 40.8938 0.849609 44.9412 0.849609C57.2132 0.849609 67.1616 10.798 67.1616 23.0701C67.1616 35.3421 57.2132 45.2905 44.9412 45.2905C40.8938 45.2905 37.0992 44.2084 33.8308 42.3178ZM33.8308 42.3178C30.5624 44.2084 26.7678 45.2905 22.7205 45.2905C10.4484 45.2905 0.5 35.3421 0.5 23.0701C0.5 10.798 10.4484 0.849609 22.7205 0.849609C26.7678 0.849609 30.5624 1.93171 33.8308 3.82238C27.1892 7.66442 22.7207 14.8454 22.7207 23.0701C22.7207 31.2947 27.1892 38.4757 33.8308 42.3178Z" fill="white"/>
</svg>
