<svg width="167" height="31" viewBox="0 0 167 31" fill="none" xmlns="http://www.w3.org/2000/svg">
<path d="M0.877197 13.5728C0.877197 6.39305 6.6975 0.572754 13.8772 0.572754V0.572754V17.5728C13.8772 24.7525 8.0569 30.5728 0.877197 30.5728V30.5728V13.5728Z" fill="#3D6EE1"/>
<rect x="15.8735" y="0.572754" width="14" height="14" rx="6.98792" fill="#15BFD5"/>
<rect x="15.8735" y="16.5728" width="14" height="14" rx="6.98792" fill="#8358DE"/>
<path d="M49.6481 4.77275H52.9601V21.5728H49.6481V14.2288H43.2641V21.5728H39.9521V4.77275H43.2641V10.9168H49.6481V4.77275Z" fill="#0B0337"/>
<path d="M63.1138 9.57276H66.6418L60.0658 27.5728H56.5618L58.7218 21.5728L54.4018 9.57276H58.0258L60.3778 17.0488L63.1138 9.57276Z" fill="#0B0337"/>
<path d="M74.7926 9.23676C75.9606 9.23676 77.0206 9.52076 77.9726 10.0888C78.9326 10.6568 79.6966 11.4208 80.2646 12.3808C80.8326 13.3328 81.1166 14.3888 81.1166 15.5488C81.1166 16.4208 80.9526 17.2408 80.6246 18.0088C80.2966 18.7768 79.8406 19.4528 79.2566 20.0368C78.6806 20.6128 78.0087 21.0648 77.2407 21.3928C76.4807 21.7208 75.6646 21.8848 74.7926 21.8848C74.1046 21.8848 73.4926 21.7328 72.9566 21.4288C72.4206 21.1248 71.9606 20.7408 71.5766 20.2768V21.5728H68.2646V3.57275H71.5766V10.8448C71.9606 10.3728 72.4206 9.98875 72.9566 9.69275C73.4926 9.38876 74.1046 9.23676 74.7926 9.23676ZM74.7446 18.6808C75.2966 18.6808 75.7966 18.5408 76.2446 18.2608C76.7006 17.9808 77.0606 17.6048 77.3246 17.1328C77.5886 16.6528 77.7206 16.1248 77.7206 15.5488C77.7206 14.9728 77.5846 14.4488 77.3126 13.9768C77.0486 13.5048 76.6887 13.1288 76.2327 12.8488C75.7847 12.5608 75.2886 12.4168 74.7446 12.4168C74.2006 12.4168 73.7087 12.5608 73.2687 12.8488C72.8367 13.1288 72.4926 13.5088 72.2366 13.9888C71.9886 14.4608 71.8646 14.9808 71.8646 15.5488C71.8646 16.1328 71.9886 16.6608 72.2366 17.1328C72.4926 17.6048 72.8367 17.9808 73.2687 18.2608C73.7087 18.5408 74.2006 18.6808 74.7446 18.6808Z" fill="#0B0337"/>
<path d="M82.972 21.5728L82.96 9.57276H86.272L86.284 10.4608C86.684 10.0768 87.152 9.77675 87.688 9.56075C88.232 9.34476 88.804 9.23676 89.404 9.23676C89.844 9.23676 90.284 9.30076 90.724 9.42875L89.416 12.7768C89.128 12.6568 88.836 12.5968 88.54 12.5968C88.124 12.5968 87.744 12.6968 87.4 12.8968C87.056 13.0968 86.784 13.3688 86.584 13.7128C86.384 14.0488 86.284 14.4288 86.284 14.8528V21.5728H82.972Z" fill="#0B0337"/>
<path d="M91.9834 9.57276H95.2954V21.5728H91.9834V9.57276ZM93.6634 8.19276C93.1834 8.19276 92.7794 8.03275 92.4514 7.71275C92.1234 7.39275 91.9594 6.99675 91.9594 6.52475C91.9594 6.05275 92.1234 5.65675 92.4514 5.33675C92.7794 5.01676 93.1794 4.85676 93.6514 4.85676C94.1234 4.85676 94.5194 5.01676 94.8394 5.33675C95.1674 5.65675 95.3314 6.05275 95.3314 6.52475C95.3314 6.99675 95.1714 7.39275 94.8514 7.71275C94.5394 8.03275 94.1434 8.19276 93.6634 8.19276Z" fill="#0B0337"/>
<path d="M106.663 3.57275H109.975V21.5728H106.663V20.3008C106.295 20.7648 105.839 21.1448 105.295 21.4408C104.751 21.7368 104.131 21.8848 103.435 21.8848C102.563 21.8848 101.747 21.7208 100.987 21.3928C100.227 21.0648 99.5548 20.6128 98.9708 20.0368C98.3948 19.4528 97.9428 18.7808 97.6148 18.0208C97.2868 17.2608 97.1228 16.4448 97.1228 15.5728C97.1228 14.7008 97.2868 13.8848 97.6148 13.1248C97.9428 12.3648 98.3948 11.6968 98.9708 11.1208C99.5548 10.5368 100.227 10.0808 100.987 9.75275C101.747 9.42475 102.563 9.26076 103.435 9.26076C104.131 9.26076 104.751 9.40875 105.295 9.70475C105.839 9.99275 106.295 10.3728 106.663 10.8448V3.57275ZM103.483 18.7048C104.027 18.7048 104.519 18.5648 104.959 18.2848C105.399 18.0048 105.747 17.6288 106.003 17.1568C106.259 16.6768 106.387 16.1488 106.387 15.5728C106.387 14.9888 106.259 14.4608 106.003 13.9888C105.747 13.5168 105.399 13.1408 104.959 12.8608C104.519 12.5808 104.027 12.4408 103.483 12.4408C102.931 12.4408 102.431 12.5808 101.983 12.8608C101.535 13.1408 101.179 13.5208 100.915 14.0008C100.651 14.4728 100.519 14.9968 100.519 15.5728C100.519 16.1488 100.651 16.6768 100.915 17.1568C101.187 17.6288 101.547 18.0048 101.995 18.2848C102.443 18.5648 102.939 18.7048 103.483 18.7048Z" fill="#0B0337"/>
<path d="M118.632 21.5728V4.77275H121.944V18.2608H128.712V21.5728H118.632Z" fill="#0B0337"/>
<path d="M131.358 21.5728L134.622 4.77275H137.418L141.318 15.0568L145.23 4.77275H148.026L151.29 21.5728H147.906L146.046 11.9368L142.458 21.4048H140.178L136.602 11.9368L134.73 21.5728H131.358Z" fill="#0B0337"/>
<path d="M160.271 21.8848C159.327 21.8848 158.423 21.7368 157.559 21.4408C156.703 21.1448 155.951 20.7168 155.303 20.1568C154.663 19.5968 154.203 18.9328 153.923 18.1648L157.031 17.0128C157.127 17.2848 157.327 17.5408 157.631 17.7808C157.935 18.0128 158.315 18.2048 158.771 18.3568C159.227 18.5008 159.727 18.5728 160.271 18.5728C160.791 18.5728 161.279 18.4968 161.735 18.3448C162.199 18.1848 162.571 17.9648 162.851 17.6848C163.139 17.4048 163.283 17.0768 163.283 16.7008C163.283 16.3248 163.135 16.0128 162.839 15.7648C162.543 15.5168 162.163 15.3208 161.699 15.1768C161.235 15.0248 160.759 14.9088 160.271 14.8288C159.063 14.6528 157.979 14.3688 157.019 13.9768C156.067 13.5768 155.315 13.0288 154.763 12.3328C154.211 11.6288 153.935 10.7368 153.935 9.65675C153.935 8.61676 154.227 7.70876 154.811 6.93275C155.403 6.15675 156.179 5.55275 157.139 5.12075C158.107 4.68875 159.151 4.47275 160.271 4.47275C161.199 4.47275 162.095 4.62075 162.959 4.91676C163.823 5.21275 164.575 5.64075 165.215 6.20076C165.863 6.76075 166.327 7.43275 166.607 8.21675L163.499 9.34475C163.403 9.07275 163.203 8.82075 162.899 8.58876C162.595 8.35675 162.215 8.16875 161.759 8.02475C161.303 7.88075 160.807 7.80875 160.271 7.80875C159.759 7.80076 159.271 7.87676 158.807 8.03676C158.351 8.19675 157.975 8.41675 157.679 8.69675C157.391 8.97675 157.247 9.29675 157.247 9.65675C157.247 10.1288 157.383 10.4848 157.655 10.7248C157.935 10.9648 158.303 11.1368 158.759 11.2408C159.215 11.3448 159.719 11.4368 160.271 11.5168C161.407 11.6848 162.455 11.9848 163.415 12.4168C164.375 12.8408 165.143 13.4088 165.719 14.1208C166.303 14.8248 166.595 15.6848 166.595 16.7008C166.595 17.7408 166.303 18.6488 165.719 19.4248C165.135 20.2008 164.363 20.8048 163.403 21.2368C162.443 21.6688 161.399 21.8848 160.271 21.8848Z" fill="#0B0337"/>
</svg>
